<mxfile host="app.diagrams.net" modified="2024-04-24T06:41:09.458Z" agent="Mozilla/5.0 (Macintosh; Intel Mac OS X 10_15_7) AppleWebKit/537.36 (KHTML, like Gecko) Chrome/124.0.0.0 Safari/537.36" etag="wCluxeEyO5ZKHi_c4ysh" version="24.0.8" type="device">
  <diagram name="Page-1" id="j_8GxKkzLuP0rhTqD5fi">
    <mxGraphModel dx="1132" dy="760" grid="1" gridSize="10" guides="1" tooltips="1" connect="1" arrows="1" fold="1" page="1" pageScale="1" pageWidth="850" pageHeight="1100" math="0" shadow="0">
      <root>
        <mxCell id="0" />
        <mxCell id="1" parent="0" />
        <mxCell id="wZEM7185GQrl6iuK_z8j-2" value="&lt;div style=&quot;color: rgb(204, 204, 204); background-color: rgb(31, 31, 31); font-family: Menlo, Monaco, &amp;quot;Courier New&amp;quot;, monospace; font-size: 13px; line-height: 20px; white-space: pre;&quot;&gt;&lt;span style=&quot;color: #dcdcaa;&quot;&gt;police_department_description&lt;/span&gt;&lt;/div&gt;&lt;span style=&quot;caret-color: rgb(51, 51, 51); color: rgb(51, 51, 51); font-family: &amp;quot;Open Sans&amp;quot;, Arial, Helvetica, sans-serif; font-size: 14px; text-align: left; text-size-adjust: auto; background-color: rgb(249, 249, 249);&quot;&gt;&lt;/span&gt;" style="rounded=0;whiteSpace=wrap;html=1;" parent="1" vertex="1">
          <mxGeometry x="490" y="490" width="120" height="60" as="geometry" />
        </mxCell>
        <mxCell id="wZEM7185GQrl6iuK_z8j-3" value="&lt;u&gt;arrest_id&lt;/u&gt;" style="ellipse;whiteSpace=wrap;html=1;" parent="1" vertex="1">
          <mxGeometry x="40" y="460" width="60" height="40" as="geometry" />
        </mxCell>
        <mxCell id="wZEM7185GQrl6iuK_z8j-4" value="arrest_list" style="rounded=0;whiteSpace=wrap;html=1;" parent="1" vertex="1">
          <mxGeometry x="155" y="450" width="120" height="60" as="geometry" />
        </mxCell>
        <mxCell id="wZEM7185GQrl6iuK_z8j-5" value="&lt;div style=&quot;color: rgb(204, 204, 204); background-color: rgb(31, 31, 31); font-family: Menlo, Monaco, &amp;quot;Courier New&amp;quot;, monospace; font-size: 13px; line-height: 20px; white-space: pre;&quot;&gt;&lt;span style=&quot;color: #dcdcaa;&quot;&gt;offense_description&lt;/span&gt;&lt;/div&gt;" style="rounded=0;whiteSpace=wrap;html=1;" parent="1" vertex="1">
          <mxGeometry x="490" y="410" width="120" height="60" as="geometry" />
        </mxCell>
        <mxCell id="wZEM7185GQrl6iuK_z8j-6" value="ofns_type" style="ellipse;whiteSpace=wrap;html=1;" parent="1" vertex="1">
          <mxGeometry x="570" y="315" width="80" height="50" as="geometry" />
        </mxCell>
        <mxCell id="wZEM7185GQrl6iuK_z8j-7" value="" style="endArrow=none;html=1;rounded=0;entryX=0.5;entryY=1;entryDx=0;entryDy=0;exitX=0.5;exitY=0;exitDx=0;exitDy=0;" parent="1" source="wZEM7185GQrl6iuK_z8j-5" target="wZEM7185GQrl6iuK_z8j-6" edge="1">
          <mxGeometry width="50" height="50" relative="1" as="geometry">
            <mxPoint x="460" y="350" as="sourcePoint" />
            <mxPoint x="510" y="300" as="targetPoint" />
          </mxGeometry>
        </mxCell>
        <mxCell id="wZEM7185GQrl6iuK_z8j-9" value="has" style="rhombus;whiteSpace=wrap;html=1;" parent="1" vertex="1">
          <mxGeometry x="350" y="410" width="80" height="60" as="geometry" />
        </mxCell>
        <mxCell id="wZEM7185GQrl6iuK_z8j-12" value="" style="endArrow=none;html=1;rounded=0;entryX=1;entryY=1;entryDx=0;entryDy=0;exitX=0.25;exitY=1;exitDx=0;exitDy=0;" parent="1" source="zrTpkTjeBgsyOfwtdYkO-9" target="wZEM7185GQrl6iuK_z8j-13" edge="1">
          <mxGeometry width="50" height="50" relative="1" as="geometry">
            <mxPoint x="35" y="530" as="sourcePoint" />
            <mxPoint x="100" y="570" as="targetPoint" />
          </mxGeometry>
        </mxCell>
        <mxCell id="wZEM7185GQrl6iuK_z8j-13" value="arrest_date" style="ellipse;whiteSpace=wrap;html=1;" parent="1" vertex="1">
          <mxGeometry x="115" y="380" width="50" height="50" as="geometry" />
        </mxCell>
        <mxCell id="wZEM7185GQrl6iuK_z8j-15" value="age_group" style="ellipse;whiteSpace=wrap;html=1;" parent="1" vertex="1">
          <mxGeometry x="115" y="170" width="55" height="50" as="geometry" />
        </mxCell>
        <mxCell id="wZEM7185GQrl6iuK_z8j-17" value="gender" style="ellipse;whiteSpace=wrap;html=1;" parent="1" vertex="1">
          <mxGeometry x="190" y="170" width="50" height="50" as="geometry" />
        </mxCell>
        <mxCell id="wZEM7185GQrl6iuK_z8j-19" value="race" style="ellipse;whiteSpace=wrap;html=1;aspect=fixed;" parent="1" vertex="1">
          <mxGeometry x="270" y="170" width="50" height="50" as="geometry" />
        </mxCell>
        <mxCell id="wZEM7185GQrl6iuK_z8j-21" value="" style="endArrow=none;html=1;rounded=0;entryX=1;entryY=0.5;entryDx=0;entryDy=0;exitX=0;exitY=0.5;exitDx=0;exitDy=0;" parent="1" source="wZEM7185GQrl6iuK_z8j-4" target="wZEM7185GQrl6iuK_z8j-3" edge="1">
          <mxGeometry width="50" height="50" relative="1" as="geometry">
            <mxPoint x="440" y="350" as="sourcePoint" />
            <mxPoint x="490" y="300" as="targetPoint" />
          </mxGeometry>
        </mxCell>
        <mxCell id="wZEM7185GQrl6iuK_z8j-22" value="latitude" style="ellipse;whiteSpace=wrap;html=1;" parent="1" vertex="1">
          <mxGeometry x="120" y="540" width="50" height="50" as="geometry" />
        </mxCell>
        <mxCell id="wZEM7185GQrl6iuK_z8j-24" value="longitude" style="ellipse;whiteSpace=wrap;html=1;" parent="1" vertex="1">
          <mxGeometry x="255" y="540" width="50" height="50" as="geometry" />
        </mxCell>
        <mxCell id="wZEM7185GQrl6iuK_z8j-25" value="" style="endArrow=none;html=1;rounded=0;exitX=0.25;exitY=1;exitDx=0;exitDy=0;entryX=1;entryY=0;entryDx=0;entryDy=0;" parent="1" source="wZEM7185GQrl6iuK_z8j-4" target="wZEM7185GQrl6iuK_z8j-22" edge="1">
          <mxGeometry width="50" height="50" relative="1" as="geometry">
            <mxPoint x="440" y="350" as="sourcePoint" />
            <mxPoint x="150" y="560" as="targetPoint" />
          </mxGeometry>
        </mxCell>
        <mxCell id="wZEM7185GQrl6iuK_z8j-26" value="" style="endArrow=none;html=1;rounded=0;entryX=0;entryY=0;entryDx=0;entryDy=0;" parent="1" target="wZEM7185GQrl6iuK_z8j-24" edge="1">
          <mxGeometry width="50" height="50" relative="1" as="geometry">
            <mxPoint x="245" y="510" as="sourcePoint" />
            <mxPoint x="300" y="600" as="targetPoint" />
          </mxGeometry>
        </mxCell>
        <mxCell id="wZEM7185GQrl6iuK_z8j-27" value="" style="endArrow=none;html=1;rounded=0;exitX=1;exitY=0.5;exitDx=0;exitDy=0;entryX=0;entryY=0.5;entryDx=0;entryDy=0;" parent="1" source="wZEM7185GQrl6iuK_z8j-4" target="wZEM7185GQrl6iuK_z8j-9" edge="1">
          <mxGeometry width="50" height="50" relative="1" as="geometry">
            <mxPoint x="440" y="510" as="sourcePoint" />
            <mxPoint x="490" y="460" as="targetPoint" />
          </mxGeometry>
        </mxCell>
        <mxCell id="wZEM7185GQrl6iuK_z8j-31" value="" style="endArrow=none;html=1;rounded=0;entryX=1;entryY=0.75;entryDx=0;entryDy=0;exitX=0;exitY=0.5;exitDx=0;exitDy=0;" parent="1" source="wZEM7185GQrl6iuK_z8j-33" target="wZEM7185GQrl6iuK_z8j-4" edge="1">
          <mxGeometry width="50" height="50" relative="1" as="geometry">
            <mxPoint x="390" y="510" as="sourcePoint" />
            <mxPoint x="490" y="460" as="targetPoint" />
          </mxGeometry>
        </mxCell>
        <mxCell id="wZEM7185GQrl6iuK_z8j-32" value="" style="endArrow=none;html=1;rounded=0;entryX=0;entryY=0.5;entryDx=0;entryDy=0;exitX=1;exitY=0.5;exitDx=0;exitDy=0;" parent="1" source="wZEM7185GQrl6iuK_z8j-33" target="wZEM7185GQrl6iuK_z8j-2" edge="1">
          <mxGeometry width="50" height="50" relative="1" as="geometry">
            <mxPoint x="540" y="510" as="sourcePoint" />
            <mxPoint x="490" y="460" as="targetPoint" />
          </mxGeometry>
        </mxCell>
        <mxCell id="wZEM7185GQrl6iuK_z8j-33" value="has" style="rhombus;whiteSpace=wrap;html=1;" parent="1" vertex="1">
          <mxGeometry x="355" y="490" width="80" height="60" as="geometry" />
        </mxCell>
        <mxCell id="wZEM7185GQrl6iuK_z8j-34" value="&lt;u&gt;ky_cd&lt;/u&gt;" style="ellipse;whiteSpace=wrap;html=1;" parent="1" vertex="1">
          <mxGeometry x="445" y="315" width="80" height="50" as="geometry" />
        </mxCell>
        <mxCell id="wZEM7185GQrl6iuK_z8j-35" value="" style="endArrow=none;html=1;rounded=0;entryX=0.5;entryY=1;entryDx=0;entryDy=0;exitX=0.5;exitY=0;exitDx=0;exitDy=0;" parent="1" source="wZEM7185GQrl6iuK_z8j-5" target="wZEM7185GQrl6iuK_z8j-34" edge="1">
          <mxGeometry width="50" height="50" relative="1" as="geometry">
            <mxPoint x="440" y="540" as="sourcePoint" />
            <mxPoint x="490" y="490" as="targetPoint" />
          </mxGeometry>
        </mxCell>
        <mxCell id="wZEM7185GQrl6iuK_z8j-36" value="0..1" style="text;html=1;align=center;verticalAlign=middle;whiteSpace=wrap;rounded=0;" parent="1" vertex="1">
          <mxGeometry x="285" y="430" width="60" height="30" as="geometry" />
        </mxCell>
        <mxCell id="wZEM7185GQrl6iuK_z8j-38" value="1..1" style="text;html=1;align=center;verticalAlign=middle;whiteSpace=wrap;rounded=0;" parent="1" vertex="1">
          <mxGeometry x="285" y="505" width="60" height="30" as="geometry" />
        </mxCell>
        <mxCell id="wZEM7185GQrl6iuK_z8j-39" value="0..*" style="text;html=1;align=center;verticalAlign=middle;whiteSpace=wrap;rounded=0;" parent="1" vertex="1">
          <mxGeometry x="440" y="530" width="60" height="30" as="geometry" />
        </mxCell>
        <mxCell id="wZEM7185GQrl6iuK_z8j-40" value="" style="endArrow=none;html=1;rounded=0;exitX=1;exitY=0.5;exitDx=0;exitDy=0;entryX=0;entryY=0.5;entryDx=0;entryDy=0;" parent="1" source="wZEM7185GQrl6iuK_z8j-9" target="wZEM7185GQrl6iuK_z8j-5" edge="1">
          <mxGeometry width="50" height="50" relative="1" as="geometry">
            <mxPoint x="410" y="390" as="sourcePoint" />
            <mxPoint x="480" y="370" as="targetPoint" />
          </mxGeometry>
        </mxCell>
        <mxCell id="wZEM7185GQrl6iuK_z8j-37" value="0..*" style="text;html=1;align=center;verticalAlign=middle;whiteSpace=wrap;rounded=0;" parent="1" vertex="1">
          <mxGeometry x="435" y="410" width="60" height="30" as="geometry" />
        </mxCell>
        <mxCell id="wZEM7185GQrl6iuK_z8j-41" value="&lt;u&gt;pd_cd&lt;/u&gt;" style="ellipse;whiteSpace=wrap;html=1;" parent="1" vertex="1">
          <mxGeometry x="460" y="570" width="80" height="50" as="geometry" />
        </mxCell>
        <mxCell id="wZEM7185GQrl6iuK_z8j-42" value="pd_type" style="ellipse;whiteSpace=wrap;html=1;" parent="1" vertex="1">
          <mxGeometry x="570" y="570" width="80" height="50" as="geometry" />
        </mxCell>
        <mxCell id="wZEM7185GQrl6iuK_z8j-43" value="" style="endArrow=none;html=1;rounded=0;entryX=0.5;entryY=0;entryDx=0;entryDy=0;exitX=0.5;exitY=1;exitDx=0;exitDy=0;" parent="1" source="wZEM7185GQrl6iuK_z8j-2" target="wZEM7185GQrl6iuK_z8j-41" edge="1">
          <mxGeometry width="50" height="50" relative="1" as="geometry">
            <mxPoint x="550" y="360" as="sourcePoint" />
            <mxPoint x="490" y="310" as="targetPoint" />
          </mxGeometry>
        </mxCell>
        <mxCell id="wZEM7185GQrl6iuK_z8j-44" value="" style="endArrow=none;html=1;rounded=0;entryX=0.5;entryY=0;entryDx=0;entryDy=0;exitX=0.5;exitY=1;exitDx=0;exitDy=0;" parent="1" source="wZEM7185GQrl6iuK_z8j-2" target="wZEM7185GQrl6iuK_z8j-42" edge="1">
          <mxGeometry width="50" height="50" relative="1" as="geometry">
            <mxPoint x="550" y="360" as="sourcePoint" />
            <mxPoint x="600" y="310" as="targetPoint" />
          </mxGeometry>
        </mxCell>
        <mxCell id="zrTpkTjeBgsyOfwtdYkO-2" value="" style="endArrow=none;html=1;rounded=0;entryX=0.5;entryY=0;entryDx=0;entryDy=0;exitX=0.5;exitY=1;exitDx=0;exitDy=0;" parent="1" source="zrTpkTjeBgsyOfwtdYkO-4" target="wZEM7185GQrl6iuK_z8j-4" edge="1">
          <mxGeometry width="50" height="50" relative="1" as="geometry">
            <mxPoint x="110" y="380" as="sourcePoint" />
            <mxPoint x="390" y="430" as="targetPoint" />
          </mxGeometry>
        </mxCell>
        <mxCell id="zrTpkTjeBgsyOfwtdYkO-4" value="arrest" style="rhombus;whiteSpace=wrap;html=1;" parent="1" vertex="1">
          <mxGeometry x="175" y="370" width="80" height="40" as="geometry" />
        </mxCell>
        <mxCell id="zrTpkTjeBgsyOfwtdYkO-5" value="" style="endArrow=none;html=1;rounded=0;entryX=0.5;entryY=0;entryDx=0;entryDy=0;exitX=0.5;exitY=1;exitDx=0;exitDy=0;" parent="1" source="eL4K7Ca5E6qD7WnMJY4w-73" target="zrTpkTjeBgsyOfwtdYkO-4" edge="1">
          <mxGeometry width="50" height="50" relative="1" as="geometry">
            <mxPoint x="320" y="310" as="sourcePoint" />
            <mxPoint x="390" y="430" as="targetPoint" />
          </mxGeometry>
        </mxCell>
        <mxCell id="zrTpkTjeBgsyOfwtdYkO-7" value="&lt;u&gt;type_id&lt;/u&gt;" style="ellipse;whiteSpace=wrap;html=1;" parent="1" vertex="1">
          <mxGeometry x="65" y="270" width="60" height="40" as="geometry" />
        </mxCell>
        <mxCell id="zrTpkTjeBgsyOfwtdYkO-9" value="1..1" style="text;html=1;align=center;verticalAlign=middle;whiteSpace=wrap;rounded=0;" parent="1" vertex="1">
          <mxGeometry x="170" y="420" width="60" height="30" as="geometry" />
        </mxCell>
        <mxCell id="eL4K7Ca5E6qD7WnMJY4w-1" value="airbnb" style="rounded=0;whiteSpace=wrap;html=1;" parent="1" vertex="1">
          <mxGeometry x="490" y="830" width="120" height="60" as="geometry" />
        </mxCell>
        <mxCell id="eL4K7Ca5E6qD7WnMJY4w-2" value="&lt;u&gt;listing_id&lt;/u&gt;" style="ellipse;whiteSpace=wrap;html=1;" parent="1" vertex="1">
          <mxGeometry x="370" y="760" width="50" height="40" as="geometry" />
        </mxCell>
        <mxCell id="eL4K7Ca5E6qD7WnMJY4w-3" value="listing_des" style="ellipse;whiteSpace=wrap;html=1;" parent="1" vertex="1">
          <mxGeometry x="420" y="740" width="60" height="40" as="geometry" />
        </mxCell>
        <mxCell id="eL4K7Ca5E6qD7WnMJY4w-4" value="join_since" style="ellipse;whiteSpace=wrap;html=1;" parent="1" vertex="1">
          <mxGeometry x="480" y="1110" width="60" height="40" as="geometry" />
        </mxCell>
        <mxCell id="eL4K7Ca5E6qD7WnMJY4w-5" value="mini_nights" style="ellipse;whiteSpace=wrap;html=1;" parent="1" vertex="1">
          <mxGeometry x="335" y="900" width="60" height="40" as="geometry" />
        </mxCell>
        <mxCell id="eL4K7Ca5E6qD7WnMJY4w-6" value="price" style="ellipse;whiteSpace=wrap;html=1;" parent="1" vertex="1">
          <mxGeometry x="710" y="900" width="60" height="40" as="geometry" />
        </mxCell>
        <mxCell id="eL4K7Ca5E6qD7WnMJY4w-7" value="" style="endArrow=none;html=1;rounded=0;entryX=0.5;entryY=1;entryDx=0;entryDy=0;exitX=0.25;exitY=0;exitDx=0;exitDy=0;" parent="1" source="eL4K7Ca5E6qD7WnMJY4w-1" target="eL4K7Ca5E6qD7WnMJY4w-3" edge="1">
          <mxGeometry width="50" height="50" relative="1" as="geometry">
            <mxPoint x="520" y="820" as="sourcePoint" />
            <mxPoint x="670" y="760" as="targetPoint" />
          </mxGeometry>
        </mxCell>
        <mxCell id="eL4K7Ca5E6qD7WnMJY4w-8" value="" style="endArrow=none;html=1;rounded=0;exitX=0;exitY=0;exitDx=0;exitDy=0;entryX=0.5;entryY=1;entryDx=0;entryDy=0;" parent="1" source="eL4K7Ca5E6qD7WnMJY4w-1" edge="1" target="eL4K7Ca5E6qD7WnMJY4w-2">
          <mxGeometry width="50" height="50" relative="1" as="geometry">
            <mxPoint x="620" y="810" as="sourcePoint" />
            <mxPoint x="440" y="790" as="targetPoint" />
          </mxGeometry>
        </mxCell>
        <mxCell id="eL4K7Ca5E6qD7WnMJY4w-9" value="" style="endArrow=none;html=1;rounded=0;exitX=0.5;exitY=0;exitDx=0;exitDy=0;" parent="1" source="eL4K7Ca5E6qD7WnMJY4w-4" target="eL4K7Ca5E6qD7WnMJY4w-12" edge="1">
          <mxGeometry width="50" height="50" relative="1" as="geometry">
            <mxPoint x="475" y="840" as="sourcePoint" />
            <mxPoint x="525" y="790" as="targetPoint" />
          </mxGeometry>
        </mxCell>
        <mxCell id="eL4K7Ca5E6qD7WnMJY4w-10" value="" style="endArrow=none;html=1;rounded=0;exitX=0.5;exitY=0;exitDx=0;exitDy=0;entryX=1;entryY=1;entryDx=0;entryDy=0;" parent="1" source="eL4K7Ca5E6qD7WnMJY4w-6" target="eL4K7Ca5E6qD7WnMJY4w-1" edge="1">
          <mxGeometry width="50" height="50" relative="1" as="geometry">
            <mxPoint x="620" y="810" as="sourcePoint" />
            <mxPoint x="530" y="840" as="targetPoint" />
          </mxGeometry>
        </mxCell>
        <mxCell id="eL4K7Ca5E6qD7WnMJY4w-11" value="reviews" style="rounded=0;whiteSpace=wrap;html=1;" parent="1" vertex="1">
          <mxGeometry x="920" y="830" width="90" height="45" as="geometry" />
        </mxCell>
        <mxCell id="eL4K7Ca5E6qD7WnMJY4w-12" value="host" style="rounded=0;whiteSpace=wrap;html=1;" parent="1" vertex="1">
          <mxGeometry x="500" y="1035" width="100" height="40" as="geometry" />
        </mxCell>
        <mxCell id="eL4K7Ca5E6qD7WnMJY4w-14" value="neighborhood" style="ellipse;whiteSpace=wrap;html=1;" parent="1" vertex="1">
          <mxGeometry x="65" y="835" width="70" height="50" as="geometry" />
        </mxCell>
        <mxCell id="eL4K7Ca5E6qD7WnMJY4w-17" value="" style="endArrow=none;html=1;rounded=0;entryX=0;entryY=0.5;entryDx=0;entryDy=0;exitX=1;exitY=0.5;exitDx=0;exitDy=0;" parent="1" source="eL4K7Ca5E6qD7WnMJY4w-90" target="eL4K7Ca5E6qD7WnMJY4w-1" edge="1">
          <mxGeometry width="50" height="50" relative="1" as="geometry">
            <mxPoint x="390" y="810" as="sourcePoint" />
            <mxPoint x="720" y="920" as="targetPoint" />
          </mxGeometry>
        </mxCell>
        <mxCell id="eL4K7Ca5E6qD7WnMJY4w-18" value="has" style="rhombus;whiteSpace=wrap;html=1;" parent="1" vertex="1">
          <mxGeometry x="175" y="672.5" width="80" height="40" as="geometry" />
        </mxCell>
        <mxCell id="eL4K7Ca5E6qD7WnMJY4w-19" value="" style="endArrow=none;html=1;rounded=0;entryX=0.5;entryY=1;entryDx=0;entryDy=0;exitX=0.5;exitY=0;exitDx=0;exitDy=0;" parent="1" target="eL4K7Ca5E6qD7WnMJY4w-18" edge="1">
          <mxGeometry width="50" height="50" relative="1" as="geometry">
            <mxPoint x="215" y="835" as="sourcePoint" />
            <mxPoint x="720" y="920" as="targetPoint" />
          </mxGeometry>
        </mxCell>
        <mxCell id="eL4K7Ca5E6qD7WnMJY4w-20" value="1..1" style="text;html=1;align=center;verticalAlign=middle;whiteSpace=wrap;rounded=0;" parent="1" vertex="1">
          <mxGeometry x="420" y="830" width="60" height="30" as="geometry" />
        </mxCell>
        <mxCell id="eL4K7Ca5E6qD7WnMJY4w-22" value="location" style="rounded=0;whiteSpace=wrap;html=1;" parent="1" vertex="1">
          <mxGeometry x="170" y="835" width="90" height="50" as="geometry" />
        </mxCell>
        <mxCell id="eL4K7Ca5E6qD7WnMJY4w-25" value="" style="endArrow=none;html=1;rounded=0;exitX=0;exitY=0.5;exitDx=0;exitDy=0;entryX=1;entryY=0.5;entryDx=0;entryDy=0;" parent="1" source="eL4K7Ca5E6qD7WnMJY4w-22" target="eL4K7Ca5E6qD7WnMJY4w-70" edge="1">
          <mxGeometry width="50" height="50" relative="1" as="geometry">
            <mxPoint x="525" y="1130" as="sourcePoint" />
            <mxPoint x="445" y="1240" as="targetPoint" />
          </mxGeometry>
        </mxCell>
        <mxCell id="eL4K7Ca5E6qD7WnMJY4w-30" value="" style="endArrow=none;html=1;rounded=0;exitX=0.5;exitY=0;exitDx=0;exitDy=0;entryX=0;entryY=1;entryDx=0;entryDy=0;" parent="1" source="eL4K7Ca5E6qD7WnMJY4w-5" target="eL4K7Ca5E6qD7WnMJY4w-1" edge="1">
          <mxGeometry width="50" height="50" relative="1" as="geometry">
            <mxPoint x="680" y="850" as="sourcePoint" />
            <mxPoint x="730" y="800" as="targetPoint" />
          </mxGeometry>
        </mxCell>
        <mxCell id="eL4K7Ca5E6qD7WnMJY4w-31" value="" style="endArrow=none;html=1;rounded=0;exitX=0.5;exitY=0;exitDx=0;exitDy=0;entryX=0.5;entryY=1;entryDx=0;entryDy=0;" parent="1" source="eL4K7Ca5E6qD7WnMJY4w-1" target="eL4K7Ca5E6qD7WnMJY4w-64" edge="1">
          <mxGeometry width="50" height="50" relative="1" as="geometry">
            <mxPoint x="680" y="850" as="sourcePoint" />
            <mxPoint x="550" y="760" as="targetPoint" />
          </mxGeometry>
        </mxCell>
        <mxCell id="eL4K7Ca5E6qD7WnMJY4w-32" value="" style="endArrow=none;html=1;rounded=0;entryX=0.5;entryY=1;entryDx=0;entryDy=0;" parent="1" source="eL4K7Ca5E6qD7WnMJY4w-33" target="eL4K7Ca5E6qD7WnMJY4w-1" edge="1">
          <mxGeometry width="50" height="50" relative="1" as="geometry">
            <mxPoint x="550" y="960" as="sourcePoint" />
            <mxPoint x="770" y="930" as="targetPoint" />
          </mxGeometry>
        </mxCell>
        <mxCell id="eL4K7Ca5E6qD7WnMJY4w-34" value="" style="endArrow=none;html=1;rounded=0;exitX=0.5;exitY=1;exitDx=0;exitDy=0;entryX=0.5;entryY=0;entryDx=0;entryDy=0;" parent="1" source="eL4K7Ca5E6qD7WnMJY4w-33" target="eL4K7Ca5E6qD7WnMJY4w-12" edge="1">
          <mxGeometry width="50" height="50" relative="1" as="geometry">
            <mxPoint x="720" y="980" as="sourcePoint" />
            <mxPoint x="770" y="930" as="targetPoint" />
          </mxGeometry>
        </mxCell>
        <mxCell id="eL4K7Ca5E6qD7WnMJY4w-35" value="1..1" style="text;html=1;align=center;verticalAlign=middle;whiteSpace=wrap;rounded=0;" parent="1" vertex="1">
          <mxGeometry x="530" y="922.5" width="60" height="30" as="geometry" />
        </mxCell>
        <mxCell id="eL4K7Ca5E6qD7WnMJY4w-36" value="1..*" style="text;html=1;align=center;verticalAlign=middle;whiteSpace=wrap;rounded=0;" parent="1" vertex="1">
          <mxGeometry x="540" y="1005" width="60" height="30" as="geometry" />
        </mxCell>
        <mxCell id="eL4K7Ca5E6qD7WnMJY4w-37" value="" style="endArrow=none;html=1;rounded=0;exitX=1;exitY=0.5;exitDx=0;exitDy=0;entryX=0;entryY=0.5;entryDx=0;entryDy=0;" parent="1" source="eL4K7Ca5E6qD7WnMJY4w-1" target="eL4K7Ca5E6qD7WnMJY4w-38" edge="1">
          <mxGeometry width="50" height="50" relative="1" as="geometry">
            <mxPoint x="720" y="870" as="sourcePoint" />
            <mxPoint x="710" y="810" as="targetPoint" />
          </mxGeometry>
        </mxCell>
        <mxCell id="eL4K7Ca5E6qD7WnMJY4w-38" value="has" style="rhombus;whiteSpace=wrap;html=1;" parent="1" vertex="1">
          <mxGeometry x="710" y="835" width="80" height="50" as="geometry" />
        </mxCell>
        <mxCell id="eL4K7Ca5E6qD7WnMJY4w-39" value="" style="endArrow=none;html=1;rounded=0;exitX=1;exitY=0.5;exitDx=0;exitDy=0;" parent="1" source="eL4K7Ca5E6qD7WnMJY4w-38" edge="1">
          <mxGeometry width="50" height="50" relative="1" as="geometry">
            <mxPoint x="790" y="927.5" as="sourcePoint" />
            <mxPoint x="920" y="857.5" as="targetPoint" />
          </mxGeometry>
        </mxCell>
        <mxCell id="eL4K7Ca5E6qD7WnMJY4w-40" value="review_value" style="ellipse;whiteSpace=wrap;html=1;" parent="1" vertex="1">
          <mxGeometry x="810" y="922.5" width="70" height="50" as="geometry" />
        </mxCell>
        <mxCell id="eL4K7Ca5E6qD7WnMJY4w-41" value="review_location" style="ellipse;whiteSpace=wrap;html=1;" parent="1" vertex="1">
          <mxGeometry x="880" y="972.5" width="70" height="50" as="geometry" />
        </mxCell>
        <mxCell id="eL4K7Ca5E6qD7WnMJY4w-42" value="review_communication" style="ellipse;whiteSpace=wrap;html=1;" parent="1" vertex="1">
          <mxGeometry x="990" y="972.5" width="70" height="50" as="geometry" />
        </mxCell>
        <mxCell id="eL4K7Ca5E6qD7WnMJY4w-43" value="&lt;u&gt;review_id&lt;/u&gt;" style="ellipse;whiteSpace=wrap;html=1;" parent="1" vertex="1">
          <mxGeometry x="830" y="702.5" width="70" height="50" as="geometry" />
        </mxCell>
        <mxCell id="eL4K7Ca5E6qD7WnMJY4w-44" value="review_num" style="ellipse;whiteSpace=wrap;html=1;" parent="1" vertex="1">
          <mxGeometry x="930" y="672.5" width="70" height="50" as="geometry" />
        </mxCell>
        <mxCell id="eL4K7Ca5E6qD7WnMJY4w-45" value="review_rating" style="ellipse;whiteSpace=wrap;html=1;" parent="1" vertex="1">
          <mxGeometry x="1020" y="702.5" width="70" height="50" as="geometry" />
        </mxCell>
        <mxCell id="eL4K7Ca5E6qD7WnMJY4w-46" value="review_clean" style="ellipse;whiteSpace=wrap;html=1;" parent="1" vertex="1">
          <mxGeometry x="1060" y="862.5" width="70" height="50" as="geometry" />
        </mxCell>
        <mxCell id="eL4K7Ca5E6qD7WnMJY4w-47" value="review_accuracy" style="ellipse;whiteSpace=wrap;html=1;" parent="1" vertex="1">
          <mxGeometry x="1060" y="780" width="70" height="50" as="geometry" />
        </mxCell>
        <mxCell id="eL4K7Ca5E6qD7WnMJY4w-48" value="review_checkin" style="ellipse;whiteSpace=wrap;html=1;" parent="1" vertex="1">
          <mxGeometry x="1050" y="922.5" width="70" height="50" as="geometry" />
        </mxCell>
        <mxCell id="eL4K7Ca5E6qD7WnMJY4w-49" value="1..1" style="text;html=1;align=center;verticalAlign=middle;whiteSpace=wrap;rounded=0;" parent="1" vertex="1">
          <mxGeometry x="620" y="835" width="60" height="30" as="geometry" />
        </mxCell>
        <mxCell id="eL4K7Ca5E6qD7WnMJY4w-50" value="1..1" style="text;html=1;align=center;verticalAlign=middle;whiteSpace=wrap;rounded=0;" parent="1" vertex="1">
          <mxGeometry x="810" y="830" width="60" height="30" as="geometry" />
        </mxCell>
        <mxCell id="eL4K7Ca5E6qD7WnMJY4w-51" value="" style="endArrow=none;html=1;rounded=0;entryX=0.25;entryY=1;entryDx=0;entryDy=0;exitX=0.5;exitY=0;exitDx=0;exitDy=0;" parent="1" source="eL4K7Ca5E6qD7WnMJY4w-40" target="eL4K7Ca5E6qD7WnMJY4w-11" edge="1">
          <mxGeometry width="50" height="50" relative="1" as="geometry">
            <mxPoint x="845" y="930" as="sourcePoint" />
            <mxPoint x="800" y="1052.5" as="targetPoint" />
          </mxGeometry>
        </mxCell>
        <mxCell id="eL4K7Ca5E6qD7WnMJY4w-52" value="" style="endArrow=none;html=1;rounded=0;entryX=0.25;entryY=1;entryDx=0;entryDy=0;exitX=0.5;exitY=0;exitDx=0;exitDy=0;" parent="1" source="eL4K7Ca5E6qD7WnMJY4w-41" target="eL4K7Ca5E6qD7WnMJY4w-11" edge="1">
          <mxGeometry width="50" height="50" relative="1" as="geometry">
            <mxPoint x="750" y="1102.5" as="sourcePoint" />
            <mxPoint x="800" y="1052.5" as="targetPoint" />
          </mxGeometry>
        </mxCell>
        <mxCell id="eL4K7Ca5E6qD7WnMJY4w-53" value="" style="endArrow=none;html=1;rounded=0;entryX=0.75;entryY=1;entryDx=0;entryDy=0;exitX=0.5;exitY=0;exitDx=0;exitDy=0;" parent="1" source="eL4K7Ca5E6qD7WnMJY4w-42" target="eL4K7Ca5E6qD7WnMJY4w-11" edge="1">
          <mxGeometry width="50" height="50" relative="1" as="geometry">
            <mxPoint x="750" y="1102.5" as="sourcePoint" />
            <mxPoint x="800" y="1052.5" as="targetPoint" />
          </mxGeometry>
        </mxCell>
        <mxCell id="eL4K7Ca5E6qD7WnMJY4w-54" value="" style="endArrow=none;html=1;rounded=0;entryX=0.75;entryY=1;entryDx=0;entryDy=0;exitX=0.5;exitY=0;exitDx=0;exitDy=0;" parent="1" source="eL4K7Ca5E6qD7WnMJY4w-48" target="eL4K7Ca5E6qD7WnMJY4w-11" edge="1">
          <mxGeometry width="50" height="50" relative="1" as="geometry">
            <mxPoint x="750" y="1102.5" as="sourcePoint" />
            <mxPoint x="800" y="1052.5" as="targetPoint" />
          </mxGeometry>
        </mxCell>
        <mxCell id="eL4K7Ca5E6qD7WnMJY4w-55" value="" style="endArrow=none;html=1;rounded=0;entryX=1;entryY=0.5;entryDx=0;entryDy=0;exitX=0.5;exitY=0;exitDx=0;exitDy=0;" parent="1" source="eL4K7Ca5E6qD7WnMJY4w-46" target="eL4K7Ca5E6qD7WnMJY4w-11" edge="1">
          <mxGeometry width="50" height="50" relative="1" as="geometry">
            <mxPoint x="750" y="1102.5" as="sourcePoint" />
            <mxPoint x="800" y="1052.5" as="targetPoint" />
          </mxGeometry>
        </mxCell>
        <mxCell id="eL4K7Ca5E6qD7WnMJY4w-56" value="" style="endArrow=none;html=1;rounded=0;entryX=1;entryY=0.5;entryDx=0;entryDy=0;exitX=0.5;exitY=1;exitDx=0;exitDy=0;" parent="1" source="eL4K7Ca5E6qD7WnMJY4w-47" target="eL4K7Ca5E6qD7WnMJY4w-11" edge="1">
          <mxGeometry width="50" height="50" relative="1" as="geometry">
            <mxPoint x="750" y="1102.5" as="sourcePoint" />
            <mxPoint x="800" y="1052.5" as="targetPoint" />
          </mxGeometry>
        </mxCell>
        <mxCell id="eL4K7Ca5E6qD7WnMJY4w-57" value="" style="endArrow=none;html=1;rounded=0;entryX=0.5;entryY=1;entryDx=0;entryDy=0;exitX=0.75;exitY=0;exitDx=0;exitDy=0;" parent="1" source="eL4K7Ca5E6qD7WnMJY4w-11" target="eL4K7Ca5E6qD7WnMJY4w-45" edge="1">
          <mxGeometry width="50" height="50" relative="1" as="geometry">
            <mxPoint x="990" y="822.5" as="sourcePoint" />
            <mxPoint x="800" y="1052.5" as="targetPoint" />
          </mxGeometry>
        </mxCell>
        <mxCell id="eL4K7Ca5E6qD7WnMJY4w-58" value="" style="endArrow=none;html=1;rounded=0;entryX=0.5;entryY=1;entryDx=0;entryDy=0;exitX=0.5;exitY=0;exitDx=0;exitDy=0;" parent="1" source="eL4K7Ca5E6qD7WnMJY4w-11" target="eL4K7Ca5E6qD7WnMJY4w-44" edge="1">
          <mxGeometry width="50" height="50" relative="1" as="geometry">
            <mxPoint x="750" y="1102.5" as="sourcePoint" />
            <mxPoint x="800" y="1052.5" as="targetPoint" />
          </mxGeometry>
        </mxCell>
        <mxCell id="eL4K7Ca5E6qD7WnMJY4w-59" value="" style="endArrow=none;html=1;rounded=0;entryX=0.5;entryY=1;entryDx=0;entryDy=0;exitX=0.25;exitY=0;exitDx=0;exitDy=0;" parent="1" source="eL4K7Ca5E6qD7WnMJY4w-11" target="eL4K7Ca5E6qD7WnMJY4w-43" edge="1">
          <mxGeometry width="50" height="50" relative="1" as="geometry">
            <mxPoint x="750" y="1102.5" as="sourcePoint" />
            <mxPoint x="800" y="1052.5" as="targetPoint" />
          </mxGeometry>
        </mxCell>
        <mxCell id="eL4K7Ca5E6qD7WnMJY4w-60" style="edgeStyle=orthogonalEdgeStyle;rounded=0;orthogonalLoop=1;jettySize=auto;html=1;exitX=0.5;exitY=1;exitDx=0;exitDy=0;" parent="1" source="eL4K7Ca5E6qD7WnMJY4w-22" target="eL4K7Ca5E6qD7WnMJY4w-22" edge="1">
          <mxGeometry relative="1" as="geometry" />
        </mxCell>
        <mxCell id="eL4K7Ca5E6qD7WnMJY4w-61" value="" style="endArrow=none;html=1;rounded=0;entryX=0.75;entryY=1;entryDx=0;entryDy=0;exitX=0.5;exitY=0;exitDx=0;exitDy=0;" parent="1" target="eL4K7Ca5E6qD7WnMJY4w-12" edge="1">
          <mxGeometry width="50" height="50" relative="1" as="geometry">
            <mxPoint x="590" y="1110" as="sourcePoint" />
            <mxPoint x="605" y="1290" as="targetPoint" />
          </mxGeometry>
        </mxCell>
        <mxCell id="eL4K7Ca5E6qD7WnMJY4w-64" value="room_type" style="ellipse;whiteSpace=wrap;html=1;" parent="1" vertex="1">
          <mxGeometry x="480" y="722.5" width="60" height="37.5" as="geometry" />
        </mxCell>
        <mxCell id="eL4K7Ca5E6qD7WnMJY4w-65" value="longitude" style="ellipse;whiteSpace=wrap;html=1;" parent="1" vertex="1">
          <mxGeometry x="620" y="740" width="60" height="40" as="geometry" />
        </mxCell>
        <mxCell id="eL4K7Ca5E6qD7WnMJY4w-66" value="latitude" style="ellipse;whiteSpace=wrap;html=1;" parent="1" vertex="1">
          <mxGeometry x="680" y="752.5" width="60" height="40" as="geometry" />
        </mxCell>
        <mxCell id="eL4K7Ca5E6qD7WnMJY4w-68" value="" style="endArrow=none;html=1;rounded=0;entryX=1;entryY=0;entryDx=0;entryDy=0;exitX=0.5;exitY=1;exitDx=0;exitDy=0;" parent="1" source="eL4K7Ca5E6qD7WnMJY4w-66" target="eL4K7Ca5E6qD7WnMJY4w-1" edge="1">
          <mxGeometry width="50" height="50" relative="1" as="geometry">
            <mxPoint x="550" y="1020" as="sourcePoint" />
            <mxPoint x="600" y="970" as="targetPoint" />
          </mxGeometry>
        </mxCell>
        <mxCell id="eL4K7Ca5E6qD7WnMJY4w-69" value="super_host" style="ellipse;whiteSpace=wrap;html=1;" parent="1" vertex="1">
          <mxGeometry x="550" y="1110" width="70" height="40" as="geometry" />
        </mxCell>
        <mxCell id="eL4K7Ca5E6qD7WnMJY4w-70" value="neighborhood_group" style="ellipse;whiteSpace=wrap;html=1;" parent="1" vertex="1">
          <mxGeometry x="65" y="885" width="70" height="50" as="geometry" />
        </mxCell>
        <mxCell id="eL4K7Ca5E6qD7WnMJY4w-71" value="" style="endArrow=none;html=1;rounded=0;entryX=0.5;entryY=1;entryDx=0;entryDy=0;exitX=0.5;exitY=0;exitDx=0;exitDy=0;" parent="1" source="eL4K7Ca5E6qD7WnMJY4w-18" target="wZEM7185GQrl6iuK_z8j-4" edge="1">
          <mxGeometry width="50" height="50" relative="1" as="geometry">
            <mxPoint x="430" y="640" as="sourcePoint" />
            <mxPoint x="640" y="650" as="targetPoint" />
          </mxGeometry>
        </mxCell>
        <mxCell id="eL4K7Ca5E6qD7WnMJY4w-73" value="suspect" style="rounded=0;whiteSpace=wrap;html=1;" parent="1" vertex="1">
          <mxGeometry x="155" y="265" width="120" height="50" as="geometry" />
        </mxCell>
        <mxCell id="eL4K7Ca5E6qD7WnMJY4w-77" value="0..*" style="text;html=1;align=center;verticalAlign=middle;whiteSpace=wrap;rounded=0;" parent="1" vertex="1">
          <mxGeometry x="170" y="330" width="60" height="30" as="geometry" />
        </mxCell>
        <mxCell id="eL4K7Ca5E6qD7WnMJY4w-78" value="" style="endArrow=none;html=1;rounded=0;entryX=0.5;entryY=1;entryDx=0;entryDy=0;" parent="1" source="eL4K7Ca5E6qD7WnMJY4w-73" target="wZEM7185GQrl6iuK_z8j-17" edge="1">
          <mxGeometry width="50" height="50" relative="1" as="geometry">
            <mxPoint x="345" y="550" as="sourcePoint" />
            <mxPoint x="395" y="500" as="targetPoint" />
          </mxGeometry>
        </mxCell>
        <mxCell id="eL4K7Ca5E6qD7WnMJY4w-79" value="" style="endArrow=none;html=1;rounded=0;entryX=0.5;entryY=1;entryDx=0;entryDy=0;exitX=0.75;exitY=0;exitDx=0;exitDy=0;" parent="1" source="eL4K7Ca5E6qD7WnMJY4w-73" target="wZEM7185GQrl6iuK_z8j-19" edge="1">
          <mxGeometry width="50" height="50" relative="1" as="geometry">
            <mxPoint x="345" y="550" as="sourcePoint" />
            <mxPoint x="395" y="500" as="targetPoint" />
          </mxGeometry>
        </mxCell>
        <mxCell id="eL4K7Ca5E6qD7WnMJY4w-80" value="" style="endArrow=none;html=1;rounded=0;entryX=0.5;entryY=1;entryDx=0;entryDy=0;exitX=0.25;exitY=0;exitDx=0;exitDy=0;" parent="1" source="eL4K7Ca5E6qD7WnMJY4w-73" target="wZEM7185GQrl6iuK_z8j-15" edge="1">
          <mxGeometry width="50" height="50" relative="1" as="geometry">
            <mxPoint x="345" y="550" as="sourcePoint" />
            <mxPoint x="395" y="500" as="targetPoint" />
          </mxGeometry>
        </mxCell>
        <mxCell id="eL4K7Ca5E6qD7WnMJY4w-81" value="" style="endArrow=none;html=1;rounded=0;entryX=1;entryY=0.5;entryDx=0;entryDy=0;exitX=0;exitY=0.5;exitDx=0;exitDy=0;" parent="1" source="eL4K7Ca5E6qD7WnMJY4w-73" target="zrTpkTjeBgsyOfwtdYkO-7" edge="1">
          <mxGeometry width="50" height="50" relative="1" as="geometry">
            <mxPoint x="345" y="550" as="sourcePoint" />
            <mxPoint x="395" y="500" as="targetPoint" />
          </mxGeometry>
        </mxCell>
        <mxCell id="eL4K7Ca5E6qD7WnMJY4w-86" value="1..1" style="text;html=1;align=center;verticalAlign=middle;whiteSpace=wrap;rounded=0;" parent="1" vertex="1">
          <mxGeometry x="170" y="620" width="60" height="30" as="geometry" />
        </mxCell>
        <mxCell id="eL4K7Ca5E6qD7WnMJY4w-87" value="0..*" style="text;html=1;align=center;verticalAlign=middle;whiteSpace=wrap;rounded=0;" parent="1" vertex="1">
          <mxGeometry x="275" y="835" width="60" height="30" as="geometry" />
        </mxCell>
        <mxCell id="eL4K7Ca5E6qD7WnMJY4w-90" value="has" style="rhombus;whiteSpace=wrap;html=1;" parent="1" vertex="1">
          <mxGeometry x="345" y="840" width="65" height="40" as="geometry" />
        </mxCell>
        <mxCell id="eL4K7Ca5E6qD7WnMJY4w-91" value="" style="endArrow=none;html=1;rounded=0;exitX=0;exitY=0.5;exitDx=0;exitDy=0;entryX=1;entryY=0.5;entryDx=0;entryDy=0;" parent="1" source="eL4K7Ca5E6qD7WnMJY4w-90" edge="1">
          <mxGeometry width="50" height="50" relative="1" as="geometry">
            <mxPoint x="380" y="610" as="sourcePoint" />
            <mxPoint x="260" y="860" as="targetPoint" />
          </mxGeometry>
        </mxCell>
        <mxCell id="eL4K7Ca5E6qD7WnMJY4w-94" value="0..*" style="text;html=1;align=center;verticalAlign=middle;whiteSpace=wrap;rounded=0;" parent="1" vertex="1">
          <mxGeometry x="170" y="790" width="60" height="30" as="geometry" />
        </mxCell>
        <mxCell id="eL4K7Ca5E6qD7WnMJY4w-98" value="" style="endArrow=none;html=1;rounded=0;entryX=0.5;entryY=1;entryDx=0;entryDy=0;exitX=0.75;exitY=0;exitDx=0;exitDy=0;" parent="1" source="eL4K7Ca5E6qD7WnMJY4w-1" target="eL4K7Ca5E6qD7WnMJY4w-65" edge="1">
          <mxGeometry width="50" height="50" relative="1" as="geometry">
            <mxPoint x="670" y="830" as="sourcePoint" />
            <mxPoint x="720" y="780" as="targetPoint" />
          </mxGeometry>
        </mxCell>
        <mxCell id="nJgiYhSuXYYMEATrcKn7-1" value="" style="endArrow=none;html=1;rounded=0;entryX=0.5;entryY=1;entryDx=0;entryDy=0;" parent="1" target="eL4K7Ca5E6qD7WnMJY4w-33" edge="1">
          <mxGeometry width="50" height="50" relative="1" as="geometry">
            <mxPoint x="550" y="960" as="sourcePoint" />
            <mxPoint x="550" y="890" as="targetPoint" />
          </mxGeometry>
        </mxCell>
        <mxCell id="eL4K7Ca5E6qD7WnMJY4w-33" value="belongs" style="rhombus;whiteSpace=wrap;html=1;" parent="1" vertex="1">
          <mxGeometry x="510" y="950" width="80" height="40" as="geometry" />
        </mxCell>
        <mxCell id="-AG4SJmtdj-shdbuCmf9-1" value="&lt;h1 style=&quot;margin-top: 0px;&quot;&gt;&lt;span style=&quot;color: rgb(45, 59, 69); font-family: Arial, sans-serif; font-size: 16px; font-weight: 400; white-space-collapse: preserve; background-color: rgb(255, 255, 255);&quot;&gt;Reference：&lt;/span&gt;&lt;br&gt;&lt;/h1&gt;&lt;p style=&quot;line-height:1.38;margin-left: 36pt;background-color:#ffffff;margin-top:0pt;margin-bottom:0pt;padding:0pt 0pt 5pt 0pt;&quot; dir=&quot;ltr&quot;&gt;&lt;span style=&quot;font-size:12pt;font-family:Arial,sans-serif;color:#2d3b45;background-color:transparent;font-weight:400;font-style:normal;font-variant:normal;text-decoration:none;vertical-align:baseline;white-space:pre;white-space:pre-wrap;&quot;&gt;listing_des: listing description&lt;/span&gt;&lt;/p&gt;&lt;p style=&quot;line-height:1.38;margin-left: 36pt;background-color:#ffffff;margin-top:0pt;margin-bottom:0pt;padding:0pt 0pt 5pt 0pt;&quot; dir=&quot;ltr&quot;&gt;&lt;span style=&quot;background-color: transparent; color: rgb(45, 59, 69); font-family: Arial, sans-serif; font-size: 12pt; white-space-collapse: preserve;&quot;&gt;pd_cd: pd_code three-digit internal classification code&lt;/span&gt;&lt;/p&gt;&lt;p style=&quot;line-height:1.38;margin-left: 36pt;background-color:#ffffff;margin-top:0pt;margin-bottom:0pt;padding:0pt 0pt 5pt 0pt;&quot; dir=&quot;ltr&quot;&gt;&lt;span style=&quot;background-color: transparent; color: rgb(45, 59, 69); font-family: Arial, sans-serif; font-size: 12pt; white-space-collapse: preserve;&quot;&gt;ky_cd: the id of offense descritption &lt;/span&gt;&lt;br&gt;&lt;/p&gt;" style="text;html=1;whiteSpace=wrap;overflow=hidden;rounded=0;" parent="1" vertex="1">
          <mxGeometry x="690" y="197.5" width="470" height="385" as="geometry" />
        </mxCell>
        <mxCell id="R0WQRQgYHGMvtjk6QNpC-1" value="&lt;u&gt;location_id&lt;/u&gt;" style="ellipse;whiteSpace=wrap;html=1;" parent="1" vertex="1">
          <mxGeometry x="65" y="780" width="70" height="50" as="geometry" />
        </mxCell>
        <mxCell id="R0WQRQgYHGMvtjk6QNpC-5" value="" style="endArrow=none;html=1;rounded=0;exitX=1;exitY=0.5;exitDx=0;exitDy=0;" parent="1" source="R0WQRQgYHGMvtjk6QNpC-1" edge="1">
          <mxGeometry width="50" height="50" relative="1" as="geometry">
            <mxPoint x="145" y="895" as="sourcePoint" />
            <mxPoint x="170" y="860" as="targetPoint" />
          </mxGeometry>
        </mxCell>
        <mxCell id="WJRf5wcC4RWYw2Fd8Ei2-1" value="" style="endArrow=none;html=1;rounded=0;exitX=1;exitY=0.5;exitDx=0;exitDy=0;" parent="1" source="eL4K7Ca5E6qD7WnMJY4w-14" edge="1">
          <mxGeometry width="50" height="50" relative="1" as="geometry">
            <mxPoint x="380" y="860" as="sourcePoint" />
            <mxPoint x="170" y="860" as="targetPoint" />
          </mxGeometry>
        </mxCell>
        <mxCell id="wZ12A22DPVykfl7UqqGi-1" value="" style="endArrow=none;html=1;rounded=0;exitX=0;exitY=0.5;exitDx=0;exitDy=0;" edge="1" parent="1" source="eL4K7Ca5E6qD7WnMJY4w-12">
          <mxGeometry width="50" height="50" relative="1" as="geometry">
            <mxPoint x="520" y="1120" as="sourcePoint" />
            <mxPoint x="480" y="1055" as="targetPoint" />
          </mxGeometry>
        </mxCell>
        <mxCell id="wZ12A22DPVykfl7UqqGi-2" value="&lt;u&gt;host_id&lt;/u&gt;" style="ellipse;whiteSpace=wrap;html=1;" vertex="1" parent="1">
          <mxGeometry x="420" y="1035" width="60" height="40" as="geometry" />
        </mxCell>
        <mxCell id="wZ12A22DPVykfl7UqqGi-3" value="" style="endArrow=none;html=1;rounded=0;exitX=1;exitY=0.5;exitDx=0;exitDy=0;" edge="1" parent="1" source="eL4K7Ca5E6qD7WnMJY4w-12">
          <mxGeometry width="50" height="50" relative="1" as="geometry">
            <mxPoint x="600" y="1060" as="sourcePoint" />
            <mxPoint x="630" y="1055" as="targetPoint" />
          </mxGeometry>
        </mxCell>
        <mxCell id="wZ12A22DPVykfl7UqqGi-4" value="host_url" style="ellipse;whiteSpace=wrap;html=1;align=center;" vertex="1" parent="1">
          <mxGeometry x="630" y="1035" width="60" height="40" as="geometry" />
        </mxCell>
        <mxCell id="wZ12A22DPVykfl7UqqGi-5" value="" style="endArrow=none;html=1;rounded=0;entryX=0;entryY=1;entryDx=0;entryDy=0;exitX=1;exitY=0;exitDx=0;exitDy=0;" edge="1" parent="1" source="wZ12A22DPVykfl7UqqGi-8" target="eL4K7Ca5E6qD7WnMJY4w-12">
          <mxGeometry width="50" height="50" relative="1" as="geometry">
            <mxPoint x="460" y="1100" as="sourcePoint" />
            <mxPoint x="545" y="1085" as="targetPoint" />
          </mxGeometry>
        </mxCell>
        <mxCell id="wZ12A22DPVykfl7UqqGi-6" value="" style="endArrow=none;html=1;rounded=0;entryX=1;entryY=1;entryDx=0;entryDy=0;exitX=0;exitY=0;exitDx=0;exitDy=0;" edge="1" parent="1" source="wZ12A22DPVykfl7UqqGi-7" target="eL4K7Ca5E6qD7WnMJY4w-12">
          <mxGeometry width="50" height="50" relative="1" as="geometry">
            <mxPoint x="630" y="1100" as="sourcePoint" />
            <mxPoint x="510" y="1085" as="targetPoint" />
          </mxGeometry>
        </mxCell>
        <mxCell id="wZ12A22DPVykfl7UqqGi-7" value="pic_url" style="ellipse;whiteSpace=wrap;html=1;align=center;" vertex="1" parent="1">
          <mxGeometry x="630" y="1090" width="60" height="40" as="geometry" />
        </mxCell>
        <mxCell id="wZ12A22DPVykfl7UqqGi-8" value="host_name" style="ellipse;whiteSpace=wrap;html=1;align=center;" vertex="1" parent="1">
          <mxGeometry x="420" y="1090" width="60" height="40" as="geometry" />
        </mxCell>
        <mxCell id="wZ12A22DPVykfl7UqqGi-9" value="max_nights" style="ellipse;whiteSpace=wrap;html=1;" vertex="1" parent="1">
          <mxGeometry x="400" y="900" width="60" height="40" as="geometry" />
        </mxCell>
        <mxCell id="wZ12A22DPVykfl7UqqGi-10" value="" style="endArrow=none;html=1;rounded=0;entryX=0.25;entryY=1;entryDx=0;entryDy=0;exitX=0.5;exitY=0;exitDx=0;exitDy=0;" edge="1" parent="1" source="wZ12A22DPVykfl7UqqGi-9" target="eL4K7Ca5E6qD7WnMJY4w-1">
          <mxGeometry width="50" height="50" relative="1" as="geometry">
            <mxPoint x="500" y="920" as="sourcePoint" />
            <mxPoint x="500" y="900" as="targetPoint" />
          </mxGeometry>
        </mxCell>
        <mxCell id="wZ12A22DPVykfl7UqqGi-11" value="accomodates" style="ellipse;whiteSpace=wrap;html=1;" vertex="1" parent="1">
          <mxGeometry x="470" y="900" width="60" height="40" as="geometry" />
        </mxCell>
        <mxCell id="wZ12A22DPVykfl7UqqGi-13" value="bathrooms" style="ellipse;whiteSpace=wrap;html=1;" vertex="1" parent="1">
          <mxGeometry x="570" y="900" width="60" height="40" as="geometry" />
        </mxCell>
        <mxCell id="wZ12A22DPVykfl7UqqGi-14" value="beds" style="ellipse;whiteSpace=wrap;html=1;" vertex="1" parent="1">
          <mxGeometry x="640" y="900" width="60" height="40" as="geometry" />
        </mxCell>
        <mxCell id="wZ12A22DPVykfl7UqqGi-15" value="listing_url" style="ellipse;whiteSpace=wrap;html=1;" vertex="1" parent="1">
          <mxGeometry x="560" y="722.5" width="60" height="37.5" as="geometry" />
        </mxCell>
        <mxCell id="wZ12A22DPVykfl7UqqGi-17" value="" style="endArrow=none;html=1;rounded=0;exitX=0.5;exitY=0;exitDx=0;exitDy=0;entryX=0.5;entryY=1;entryDx=0;entryDy=0;" edge="1" parent="1" source="eL4K7Ca5E6qD7WnMJY4w-1" target="wZ12A22DPVykfl7UqqGi-15">
          <mxGeometry width="50" height="50" relative="1" as="geometry">
            <mxPoint x="560" y="840" as="sourcePoint" />
            <mxPoint x="520" y="770" as="targetPoint" />
          </mxGeometry>
        </mxCell>
        <mxCell id="wZ12A22DPVykfl7UqqGi-18" value="" style="endArrow=none;html=1;rounded=0;exitX=0.5;exitY=0;exitDx=0;exitDy=0;" edge="1" parent="1" source="wZ12A22DPVykfl7UqqGi-11">
          <mxGeometry width="50" height="50" relative="1" as="geometry">
            <mxPoint x="460" y="910" as="sourcePoint" />
            <mxPoint x="550" y="890" as="targetPoint" />
          </mxGeometry>
        </mxCell>
        <mxCell id="wZ12A22DPVykfl7UqqGi-19" value="" style="endArrow=none;html=1;rounded=0;exitX=0.5;exitY=0;exitDx=0;exitDy=0;entryX=0.5;entryY=1;entryDx=0;entryDy=0;" edge="1" parent="1" source="wZ12A22DPVykfl7UqqGi-13" target="eL4K7Ca5E6qD7WnMJY4w-1">
          <mxGeometry width="50" height="50" relative="1" as="geometry">
            <mxPoint x="530" y="910" as="sourcePoint" />
            <mxPoint x="560" y="900" as="targetPoint" />
          </mxGeometry>
        </mxCell>
        <mxCell id="wZ12A22DPVykfl7UqqGi-20" value="" style="endArrow=none;html=1;rounded=0;exitX=0.5;exitY=0;exitDx=0;exitDy=0;entryX=0.75;entryY=1;entryDx=0;entryDy=0;" edge="1" parent="1" source="wZ12A22DPVykfl7UqqGi-14" target="eL4K7Ca5E6qD7WnMJY4w-1">
          <mxGeometry width="50" height="50" relative="1" as="geometry">
            <mxPoint x="600" y="910" as="sourcePoint" />
            <mxPoint x="560" y="900" as="targetPoint" />
          </mxGeometry>
        </mxCell>
      </root>
    </mxGraphModel>
  </diagram>
</mxfile>
